<svg width="295" height="40" viewBox="0 0 295 40" fill="none" xmlns="http://www.w3.org/2000/svg">
<path d="M47.1602 4.08274V30.2967H43.9447V4.08274H47.1602Z" fill="#6200EA"/>
<path d="M59.778 9.31049C62.1336 9.31049 64.0417 10.0752 65.5022 11.6047C66.9627 13.1091 67.693 15.2904 67.693 18.1488V30.2967H64.5129V18.6377C64.5129 16.5817 64.0299 15.0146 63.0641 13.9365C62.0983 12.8333 60.7791 12.2817 59.1066 12.2817C57.4106 12.2817 56.0561 12.8458 55.0431 13.9741C54.0538 15.1024 53.5591 16.7447 53.5591 18.901V30.2967H50.3436V9.68658H53.5591V12.6201C54.1951 11.5671 55.0549 10.7522 56.1385 10.1755C57.2457 9.59883 58.4588 9.31049 59.778 9.31049Z" fill="#6200EA"/>
<path d="M78.5283 12.5073H74.4648V30.2967H71.2494V12.5073H68.7406V9.68658H71.2494V8.21981C71.2494 5.91308 71.803 4.23318 72.9101 3.18011C74.0408 2.10196 75.8429 1.56289 78.3163 1.56289V4.42123C76.9029 4.42123 75.9018 4.72211 75.3129 5.32386C74.7475 5.90054 74.4648 6.86586 74.4648 8.21981V9.68658H78.5283V12.5073Z" fill="#6200EA"/>
<path d="M81.6414 6.33932C81.0289 6.33932 80.5107 6.11366 80.0867 5.66235C79.6626 5.21103 79.4506 4.65942 79.4506 4.00752C79.4506 3.35562 79.6626 2.80401 80.0867 2.35269C80.5107 1.90138 81.0289 1.67572 81.6414 1.67572C82.2303 1.67572 82.725 1.90138 83.1255 2.35269C83.5495 2.80401 83.7615 3.35562 83.7615 4.00752C83.7615 4.65942 83.5495 5.21103 83.1255 5.66235C82.725 6.11366 82.2303 6.33932 81.6414 6.33932ZM83.1961 9.68658V30.2967H79.9807V9.68658H83.1961Z" fill="#6200EA"/>
<path d="M95.814 9.31049C98.1696 9.31049 100.078 10.0752 101.538 11.6047C102.999 13.1091 103.729 15.2904 103.729 18.1488V30.2967H100.549V18.6377C100.549 16.5817 100.066 15.0146 99.1001 13.9365C98.1343 12.8333 96.8151 12.2817 95.1426 12.2817C93.4465 12.2817 92.092 12.8458 91.0791 13.9741C90.0897 15.1024 89.595 16.7447 89.595 18.901V30.2967H86.3796V9.68658H89.595V12.6201C90.2311 11.5671 91.0909 10.7522 92.1745 10.1755C93.2816 9.59883 94.4948 9.31049 95.814 9.31049Z" fill="#6200EA"/>
<path d="M108.345 6.33932C107.733 6.33932 107.215 6.11366 106.791 5.66235C106.367 5.21103 106.155 4.65942 106.155 4.00752C106.155 3.35562 106.367 2.80401 106.791 2.35269C107.215 1.90138 107.733 1.67572 108.345 1.67572C108.934 1.67572 109.429 1.90138 109.829 2.35269C110.253 2.80401 110.465 3.35562 110.465 4.00752C110.465 4.65942 110.253 5.21103 109.829 5.66235C109.429 6.11366 108.934 6.33932 108.345 6.33932ZM109.9 9.68658V30.2967H106.685V9.68658H109.9Z" fill="#6200EA"/>
<path d="M117.006 12.5073V24.6552C117.006 25.6582 117.206 26.3728 117.606 26.799C118.007 27.2002 118.702 27.4008 119.691 27.4008H122.059V30.2967H119.161C117.371 30.2967 116.028 29.8579 115.133 28.9804C114.238 28.1028 113.79 26.6611 113.79 24.6552V12.5073H111.281V9.68658H113.79V4.49645H117.006V9.68658H122.059V12.5073H117.006Z" fill="#6200EA"/>
<path d="M140.336 9.68658L128.675 40H125.354L129.17 30.071L121.361 9.68658H124.93L131.007 26.3853L137.014 9.68658H140.336Z" fill="#6200EA"/>
<path d="M167.299 30.2967L164.084 26.8366C162.882 28.1655 161.598 29.1559 160.232 29.8078C158.866 30.4346 157.323 30.748 155.603 30.748C153.907 30.748 152.399 30.4221 151.08 29.7702C149.785 29.1183 148.772 28.1906 148.042 26.987C147.335 25.7835 146.981 24.3794 146.981 22.7748C146.981 20.9444 147.464 19.3397 148.43 17.9607C149.42 16.5566 150.868 15.4534 152.776 14.6511C152.023 13.6983 151.481 12.8207 151.151 12.0184C150.821 11.216 150.656 10.3385 150.656 9.38571C150.656 8.28249 150.915 7.2921 151.434 6.41454C151.975 5.51191 152.741 4.80986 153.73 4.3084C154.72 3.80694 155.862 3.5562 157.158 3.5562C158.43 3.5562 159.537 3.81947 160.479 4.34601C161.422 4.87254 162.128 5.6122 162.599 6.56498C163.071 7.49269 163.283 8.53322 163.235 9.68658H160.02C160.044 8.65859 159.773 7.85625 159.207 7.27956C158.642 6.67781 157.912 6.37693 157.017 6.37693C156.074 6.37693 155.309 6.66527 154.72 7.24195C154.154 7.79356 153.872 8.50815 153.872 9.38571C153.872 10.1379 154.06 10.865 154.437 11.5671C154.838 12.2691 155.497 13.1341 156.416 14.1621L163.766 22.0226L164.402 20.9695L166.804 16.682H170.267L167.37 22.0226C166.969 22.7748 166.498 23.5646 165.956 24.392L171.504 30.2967H167.299ZM155.603 27.8145C156.875 27.8145 158.018 27.5512 159.031 27.0247C160.067 26.4981 161.045 25.6832 161.963 24.58L154.72 16.8324C151.705 18.061 150.197 20.0042 150.197 22.6619C150.197 24.1412 150.692 25.3698 151.681 26.3477C152.694 27.3255 154.001 27.8145 155.603 27.8145Z" fill="#6200EA"/>
<path d="M191.675 16.7948C192.57 16.9453 193.383 17.3339 194.113 17.9607C194.867 18.5875 195.456 19.3648 195.88 20.2925C196.327 21.2202 196.551 22.2106 196.551 23.2637C196.551 24.5926 196.233 25.7961 195.597 26.8742C194.961 27.9273 194.031 28.7672 192.806 29.3941C191.604 29.9958 190.179 30.2967 188.53 30.2967H179.343V4.08274H188.177C189.849 4.08274 191.275 4.38362 192.452 4.98537C193.63 5.56205 194.514 6.35186 195.102 7.35478C195.691 8.35771 195.986 9.486 195.986 10.7397C195.986 12.2942 195.585 13.5855 194.784 14.6135C194.007 15.6164 192.971 16.3435 191.675 16.7948ZM182.559 15.4033H187.965C189.472 15.4033 190.639 15.0272 191.463 14.275C192.287 13.5228 192.7 12.4822 192.7 11.1534C192.7 9.82449 192.287 8.78395 191.463 8.03176C190.639 7.27956 189.449 6.90347 187.894 6.90347H182.559V15.4033ZM188.248 27.476C189.849 27.476 191.098 27.0748 191.993 26.2725C192.888 25.4701 193.336 24.3544 193.336 22.9252C193.336 21.471 192.865 20.3301 191.922 19.5027C190.98 18.6502 189.72 18.224 188.142 18.224H182.559V27.476H188.248Z" fill="#6200EA"/>
<path d="M216.384 19.2018C216.384 19.8537 216.349 20.5433 216.278 21.2704H200.801C200.919 23.3013 201.567 24.8934 202.745 26.0468C203.946 27.1751 205.395 27.7392 207.091 27.7392C208.481 27.7392 209.635 27.4008 210.554 26.7238C211.496 26.0217 212.156 25.094 212.532 23.9407H215.995C215.477 25.9214 214.441 27.5387 212.886 28.7923C211.331 30.0209 209.399 30.6352 207.091 30.6352C205.254 30.6352 203.605 30.1964 202.144 29.3188C200.707 28.4413 199.576 27.2002 198.752 25.5955C197.927 23.9657 197.515 22.0852 197.515 19.954C197.515 17.8228 197.916 15.9549 198.717 14.3502C199.518 12.7455 200.636 11.5169 202.073 10.6644C203.534 9.78688 205.206 9.3481 207.091 9.3481C208.928 9.3481 210.554 9.77434 211.967 10.6268C213.381 11.4793 214.464 12.6578 215.218 14.1621C215.995 15.6415 216.384 17.3214 216.384 19.2018ZM213.063 18.4873C213.063 17.1835 212.792 16.0677 212.25 15.14C211.708 14.1872 210.966 13.4726 210.024 12.9962C209.105 12.4948 208.08 12.244 206.95 12.244C205.324 12.244 203.934 12.7957 202.78 13.8989C201.649 15.0021 201.002 16.5315 200.837 18.4873H213.063Z" fill="#6200EA"/>
<path d="M235.01 9.68658L223.349 40H220.028L223.844 30.071L216.035 9.68658H219.604L225.681 26.3853L231.688 9.68658H235.01Z" fill="#6200EA"/>
<path d="M244.39 30.6352C242.576 30.6352 240.927 30.1964 239.443 29.3188C237.983 28.4413 236.828 27.2002 235.98 25.5955C235.156 23.9657 234.744 22.0852 234.744 19.954C234.744 17.8479 235.168 15.9925 236.016 14.3878C236.887 12.758 238.065 11.5169 239.549 10.6644C241.033 9.78688 242.694 9.3481 244.531 9.3481C246.369 9.3481 248.03 9.78688 249.514 10.6644C250.998 11.5169 252.164 12.7455 253.012 14.3502C253.883 15.9549 254.319 17.8228 254.319 19.954C254.319 22.0852 253.872 23.9657 252.976 25.5955C252.105 27.2002 250.915 28.4413 249.408 29.3188C247.9 30.1964 246.228 30.6352 244.39 30.6352ZM244.39 27.6264C245.544 27.6264 246.628 27.3381 247.641 26.7614C248.654 26.1847 249.467 25.3197 250.079 24.1663C250.715 23.013 251.033 21.6089 251.033 19.954C251.033 18.2992 250.727 16.8951 250.114 15.7417C249.502 14.5884 248.701 13.7359 247.712 13.1843C246.722 12.6076 245.65 12.3193 244.496 12.3193C243.318 12.3193 242.235 12.6076 241.245 13.1843C240.279 13.7359 239.502 14.5884 238.913 15.7417C238.324 16.8951 238.03 18.2992 238.03 19.954C238.03 21.6339 238.313 23.0506 238.878 24.2039C239.467 25.3573 240.244 26.2223 241.21 26.799C242.176 27.3506 243.236 27.6264 244.39 27.6264Z" fill="#6200EA"/>
<path d="M265.685 9.31049C268.04 9.31049 269.948 10.0752 271.409 11.6047C272.869 13.1091 273.6 15.2904 273.6 18.1488V30.2967H270.419V18.6377C270.419 16.5817 269.937 15.0146 268.971 13.9365C268.005 12.8333 266.686 12.2817 265.013 12.2817C263.317 12.2817 261.963 12.8458 260.95 13.9741C259.96 15.1024 259.466 16.7447 259.466 18.901V30.2967H256.25V9.68658H259.466V12.6201C260.102 11.5671 260.961 10.7522 262.045 10.1755C263.152 9.59883 264.365 9.31049 265.685 9.31049Z" fill="#6200EA"/>
<path d="M275.354 19.9164C275.354 17.8103 275.754 15.9674 276.555 14.3878C277.356 12.7831 278.452 11.542 279.841 10.6644C281.255 9.78688 282.833 9.3481 284.576 9.3481C286.084 9.3481 287.485 9.72419 288.781 10.4764C290.077 11.2035 291.066 12.1688 291.749 13.3723V2.46552H295V30.2967H291.749V26.4229C291.113 27.6515 290.171 28.6669 288.922 29.4693C287.674 30.2466 286.213 30.6352 284.541 30.6352C282.821 30.6352 281.255 30.1839 279.841 29.2812C278.452 28.3786 277.356 27.1124 276.555 25.4827C275.754 23.8529 275.354 21.9975 275.354 19.9164ZM291.749 19.954C291.749 18.3995 291.455 17.0455 290.866 15.8922C290.277 14.7388 289.476 13.8613 288.463 13.2595C287.474 12.6327 286.378 12.3193 285.177 12.3193C283.976 12.3193 282.88 12.6201 281.891 13.2219C280.901 13.8237 280.112 14.7012 279.523 15.8546C278.934 17.0079 278.64 18.3619 278.64 19.9164C278.64 21.496 278.934 22.8751 279.523 24.0535C280.112 25.2069 280.901 26.0969 281.891 26.7238C282.88 27.3255 283.976 27.6264 285.177 27.6264C286.378 27.6264 287.474 27.3255 288.463 26.7238C289.476 26.0969 290.277 25.2069 290.866 24.0535C291.455 22.8751 291.749 21.5086 291.749 19.954Z" fill="#6200EA"/>
<path d="M13.7413 26.1178C13.7413 30.1567 10.6652 33.4308 6.87065 33.4308C3.0761 33.4308 0 30.1567 0 26.1178C0 22.079 3.0761 18.8048 6.87065 18.8048C10.6652 18.8048 13.7413 22.079 13.7413 26.1178Z" fill="#6200EA"/>
<path d="M31.4087 9.40242C31.4087 14.5952 27.4537 18.8048 22.575 18.8048C17.6963 18.8048 13.7413 14.5952 13.7413 9.40242C13.7413 4.20961 17.6963 0 22.575 0C27.4537 0 31.4087 4.20961 31.4087 9.40242Z" fill="#6200EA"/>
</svg>
